<?xml version="1.0" encoding="utf-8" ?>
<svg xmlns="http://www.w3.org/2000/svg" xmlns:xlink="http://www.w3.org/1999/xlink" width="557" height="558">
	<clipPath id="cl_3">
		<rect x="1.5258789e-05" y="-0.00016784668" width="557.05664" height="558.40717"/>
	</clipPath>
	<g clip-path="url(#cl_3)">
		<path fill="white" transform="matrix(0.956905 0 0 0.956905 -209.684 -212.661)" d="M0 0L1024 0L1024 1024L0 1024L0 0Z"/>
		<path fill="#1F2D61" transform="matrix(0.956905 0 0 0.956905 -209.684 -212.661)" d="M751.077 464.699C758.303 463.815 766.941 466.77 772.738 471.004C779.707 476.096 784.4 483.546 785.698 492.096C787.029 500.861 785.131 509.901 779.82 517.065C773.806 525.18 765.115 528.969 755.382 530.466C746.141 530.589 737.992 528.948 730.639 522.994Q730.029 522.495 729.445 521.968Q728.86 521.44 728.302 520.884Q727.744 520.328 727.214 519.746Q726.684 519.163 726.182 518.556Q725.681 517.948 725.21 517.317Q724.739 516.686 724.3 516.032Q723.86 515.379 723.453 514.705Q723.046 514.03 722.672 513.337Q722.298 512.644 721.959 511.933Q721.62 511.223 721.315 510.496Q721.011 509.77 720.742 509.029Q720.474 508.289 720.242 507.536Q720.01 506.784 719.815 506.021Q719.62 505.258 719.462 504.486Q719.305 503.714 719.185 502.936Q719.066 502.157 718.984 501.374Q718.9 500.561 718.855 499.744Q718.811 498.928 718.807 498.11Q718.804 497.293 718.84 496.476Q718.877 495.659 718.953 494.846Q719.03 494.032 719.147 493.222Q719.264 492.413 719.421 491.611Q719.577 490.809 719.773 490.015Q719.97 489.221 720.205 488.438Q720.44 487.655 720.713 486.885Q720.986 486.114 721.297 485.358Q721.608 484.602 721.956 483.862Q722.304 483.122 722.689 482.401Q723.073 481.679 723.492 480.977Q723.911 480.275 724.365 479.595Q724.818 478.915 725.304 478.257Q725.791 477.6 726.309 476.968C732.73 469.127 741.201 465.679 751.077 464.699Z"/>
		<path fill="#1F2D61" transform="matrix(0.956905 0 0 0.956905 -209.684 -212.661)" d="M268.633 465.166C276.469 464.622 283.925 466.384 290.54 470.679Q291.232 471.123 291.9 471.602Q292.569 472.08 293.212 472.592Q293.856 473.103 294.473 473.646Q295.09 474.19 295.679 474.763Q296.268 475.337 296.827 475.939Q297.386 476.542 297.915 477.171Q298.443 477.801 298.939 478.457Q299.435 479.112 299.898 479.792Q300.36 480.471 300.788 481.173Q301.216 481.875 301.607 482.598Q301.999 483.321 302.354 484.062Q302.709 484.804 303.027 485.562Q303.344 486.32 303.623 487.094Q303.902 487.867 304.141 488.653Q304.381 489.44 304.581 490.237Q304.781 491.035 304.94 491.841Q305.105 492.641 305.23 493.449Q305.355 494.256 305.44 495.069Q305.525 495.882 305.569 496.698Q305.614 497.514 305.618 498.331Q305.622 499.148 305.586 499.964Q305.55 500.781 305.474 501.594Q305.397 502.408 305.281 503.217Q305.164 504.026 305.008 504.828Q304.851 505.63 304.655 506.423Q304.459 507.216 304.224 507.999Q303.99 508.782 303.716 509.552Q303.443 510.322 303.132 511.077Q302.821 511.833 302.473 512.573Q302.125 513.312 301.741 514.033Q301.357 514.754 300.938 515.456Q300.518 516.157 300.065 516.837C293.957 525.902 285.183 530.011 274.753 531.99C265.891 532.472 257.624 530.575 250.45 525.161Q249.813 524.676 249.2 524.161Q248.588 523.646 248.001 523.101Q247.414 522.556 246.855 521.984Q246.295 521.411 245.765 520.812Q245.234 520.213 244.733 519.588Q244.232 518.964 243.762 518.316Q243.292 517.667 242.855 516.997Q242.417 516.327 242.013 515.636Q241.608 514.945 241.238 514.235Q240.868 513.525 240.533 512.798Q240.198 512.071 239.899 511.329Q239.6 510.586 239.337 509.83Q239.075 509.074 238.85 508.306Q238.624 507.537 238.437 506.759Q238.249 505.981 238.1 505.194Q237.951 504.408 237.84 503.615Q237.729 502.788 237.658 501.956Q237.588 501.124 237.559 500.289Q237.53 499.455 237.543 498.62Q237.556 497.785 237.61 496.952Q237.664 496.119 237.76 495.289Q237.855 494.46 237.992 493.636Q238.128 492.813 238.305 491.997Q238.483 491.181 238.7 490.375Q238.918 489.569 239.176 488.775Q239.433 487.98 239.73 487.2Q240.026 486.419 240.361 485.655Q240.696 484.89 241.069 484.143Q241.441 483.395 241.85 482.668Q242.26 481.94 242.704 481.233Q243.149 480.527 243.629 479.843Q244.108 479.16 244.621 478.501C250.6 470.708 259.005 466.446 268.633 465.166Z"/>
		<path fill="#1F2D61" transform="matrix(0.956905 0 0 0.956905 -209.684 -212.661)" d="M506.421 362.195Q509.732 361.971 513.051 362.015Q516.37 362.06 519.674 362.373Q522.978 362.687 526.246 363.267Q529.514 363.847 532.724 364.69C558.837 371.704 576.075 387.95 589.244 411.027Q554.185 411.378 519.125 411.087L434.848 411.05C437.976 404.545 441.689 398.395 446.326 392.853C461.632 374.557 482.818 364.362 506.421 362.195Z"/>
		<path fill="#1F2D61" transform="matrix(0.956905 0 0 0.956905 -209.684 -212.661)" d="M505.084 237.228C552.439 235.349 603.236 248.456 644.001 272.581Q646.913 274.291 649.783 276.072Q652.652 277.853 655.478 279.704Q658.303 281.554 661.082 283.474Q663.861 285.393 666.592 287.38Q669.323 289.366 672.005 291.419Q674.687 293.472 677.318 295.59Q679.949 297.708 682.527 299.889Q685.105 302.071 687.629 304.315Q690.153 306.559 692.621 308.864Q695.09 311.17 697.501 313.534Q699.912 315.899 702.265 318.322Q704.617 320.746 706.91 323.226Q709.203 325.706 711.434 328.241Q713.665 330.776 715.834 333.365Q718.002 335.955 720.107 338.596Q722.211 341.237 724.251 343.93Q726.29 346.622 728.263 349.363Q730.235 352.104 732.141 354.893Q734.046 357.682 735.882 360.516Q737.718 363.351 739.485 366.229Q741.251 369.108 742.947 372.029Q744.642 374.95 746.266 377.911Q747.889 380.873 749.44 383.873Q750.99 386.874 752.467 389.911Q753.944 392.949 755.345 396.021Q756.747 399.094 758.074 402.2Q759.4 405.306 760.65 408.444Q761.9 411.581 763.073 414.748Q764.245 417.915 765.34 421.11Q766.435 424.305 767.451 427.526Q768.468 430.747 769.405 433.992Q770.342 437.236 771.2 440.503Q753.391 440.352 735.582 440.533C726.685 407.107 706.022 372.12 682.572 346.841Q680.647 344.736 678.67 342.679Q676.694 340.621 674.667 338.613Q672.641 336.605 670.566 334.647Q668.491 332.689 666.369 330.783Q664.246 328.876 662.078 327.022Q659.91 325.168 657.697 323.368Q655.483 321.568 653.227 319.823Q650.97 318.077 648.671 316.388Q646.373 314.698 644.033 313.065Q641.694 311.433 639.315 309.858Q636.936 308.283 634.519 306.767Q632.103 305.251 629.65 303.794Q627.197 302.338 624.708 300.942Q622.22 299.546 619.699 298.212Q617.177 296.877 614.624 295.605Q612.07 294.333 609.487 293.123Q606.903 291.914 604.29 290.768Q601.677 289.623 599.037 288.542Q596.397 287.46 593.731 286.444Q591.065 285.428 588.376 284.478Q585.686 283.527 582.973 282.643Q580.261 281.758 577.528 280.941Q574.795 280.123 572.042 279.373Q569.29 278.623 566.52 277.94Q563.75 277.257 560.964 276.643Q558.178 276.028 555.378 275.482Q552.578 274.936 549.765 274.459Q546.952 273.982 544.129 273.574Q541.305 273.165 538.473 272.827Q535.64 272.488 532.8 272.218Q529.96 271.949 527.114 271.749Q524.268 271.55 521.418 271.42C477.592 268.202 429.389 282.129 392.034 304.669C342.406 334.615 304.201 384.552 290.222 441.012Q273.076 440.962 255.93 441.086C265.171 396.591 288.244 354.794 318.973 321.604C368.055 268.593 433.237 240.037 505.084 237.228Z"/>
		<path fill="#1F2D61" transform="matrix(0.956905 0 0 0.956905 -209.684 -212.661)" d="M241.83 553.764C289.415 552.712 338.302 564.681 378.213 591.303Q391.145 600.026 403.221 609.901C425.089 628.1 441.015 643.87 469.113 652.875Q474.239 654.496 479.476 655.712Q484.712 656.927 490.028 657.731Q495.344 658.534 500.706 658.92Q506.068 659.305 511.444 659.271C546.847 659.245 576.901 647.142 603.732 624.43C613.138 616.467 621.656 607.751 631.596 600.383C667.169 574.013 708.654 557.004 753.016 553.817C762.17 553.159 771.347 553.358 780.514 553.543C778.691 567.106 776.239 580.052 772.537 593.246L772.035 594.726C770.089 596.228 765.438 595.687 763.057 595.738C755.989 595.89 748.543 597.676 741.616 599.095Q737.469 599.96 733.362 601Q729.256 602.04 725.197 603.253Q721.138 604.466 717.135 605.851Q713.131 607.236 709.19 608.789Q705.249 610.342 701.377 612.061Q697.505 613.78 693.71 615.662Q689.915 617.544 686.203 619.586Q682.491 621.627 678.869 623.824C665.027 632.17 651.785 642.208 639.322 652.477C634.324 656.595 629.722 661.17 624.738 665.298C613.355 674.726 600.331 683.099 586.9 689.249Q584.48 690.367 582.027 691.413Q579.574 692.458 577.091 693.429Q574.608 694.401 572.097 695.297Q569.585 696.193 567.048 697.013Q564.511 697.833 561.951 698.577Q559.391 699.321 556.809 699.987Q554.227 700.654 551.627 701.242Q549.026 701.831 546.409 702.341Q543.792 702.851 541.161 703.283Q538.53 703.714 535.887 704.066Q533.244 704.418 530.592 704.691Q527.939 704.964 525.28 705.156Q522.621 705.349 519.957 705.462Q517.293 705.575 514.627 705.607Q511.961 705.64 509.295 705.593Q506.629 705.545 503.966 705.418C465.026 703.592 429.993 689.899 399.895 665.187C388.268 655.641 377.6 644.949 365.534 635.924C333.052 611.629 292.55 597.61 251.923 598.558C249.886 591.716 239.773 559.376 241.83 553.764Z"/>
		<path fill="#1F2D61" transform="matrix(0.956905 0 0 0.956905 -209.684 -212.661)" d="M755.828 622.197C756.898 622.122 758.529 621.676 759.34 622.372C759.286 622.871 759.272 623.169 759.166 623.638C757.794 629.724 751.481 640.722 748.205 646.523Q746.296 649.983 744.286 653.386Q742.277 656.788 740.169 660.131Q738.06 663.473 735.855 666.753Q733.65 670.032 731.35 673.245Q729.05 676.459 726.657 679.604Q724.264 682.749 721.781 685.822Q719.297 688.896 716.724 691.895Q714.151 694.895 711.492 697.818Q708.833 700.741 706.089 703.585Q703.345 706.429 700.52 709.192Q697.694 711.954 694.789 714.633Q691.884 717.312 688.901 719.905Q685.919 722.498 682.862 725.002Q679.805 727.506 676.676 729.92Q673.548 732.334 670.35 734.656Q667.151 736.977 663.887 739.204C604.588 779.516 534.142 796.614 463.298 783.078Q460.636 782.551 457.984 781.973Q455.333 781.395 452.693 780.766Q450.052 780.138 447.425 779.458Q444.798 778.779 442.184 778.049Q439.57 777.319 436.971 776.539Q434.371 775.759 431.787 774.929Q429.203 774.099 426.636 773.219Q424.069 772.34 421.519 771.411Q418.969 770.482 416.437 769.505Q413.905 768.527 411.393 767.501Q408.881 766.475 406.388 765.4Q403.896 764.326 401.425 763.204Q398.954 762.082 396.505 760.913Q394.056 759.743 391.63 758.527Q389.204 757.311 386.802 756.048Q384.399 754.785 382.022 753.477Q379.644 752.168 377.293 750.814Q374.941 749.46 372.615 748.06Q370.29 746.661 367.992 745.218Q365.694 743.774 363.424 742.286Q361.154 740.799 358.913 739.268Q356.673 737.737 354.462 736.163Q352.251 734.589 350.07 732.973Q347.89 731.357 345.741 729.699Q343.593 728.042 341.476 726.343Q339.36 724.644 337.276 722.905Q335.193 721.166 333.143 719.387Q331.094 717.608 329.079 715.79Q327.064 713.972 325.084 712.116Q323.105 710.259 321.161 708.365Q319.218 706.471 317.311 704.54Q315.404 702.609 313.535 700.641C302.411 688.85 292.746 676.115 283.635 662.731C275.521 650.408 267.855 637.072 262.346 623.37C298.788 627.34 329.679 639.705 358.137 662.832C368.922 671.597 378.861 681.374 389.695 690.086C454.178 741.935 546.176 744.291 616.024 701.459C629.927 692.934 643.193 682.625 655.68 672.17C660.6 668.05 665.293 663.684 670.305 659.669C695.153 639.758 723.883 625.665 755.828 622.197Z"/>
		<path fill="#1F2D61" transform="matrix(0.956905 0 0 0.956905 -209.684 -212.661)" d="M371.789 418.532C379.476 418.225 387.233 418.335 394.927 418.324L568.304 418.493L622.954 418.423C631.705 418.411 641.347 417.622 650.03 418.61C653.495 419.005 657.327 421.591 659.677 424.042C664.609 429.183 664.993 435.796 664.728 442.511C663.037 485.424 644.234 523.309 612.924 552.232C599.019 563.886 584.073 573.259 567.151 579.92Q565.401 580.604 563.635 581.245Q561.869 581.886 560.087 582.483Q558.306 583.08 556.51 583.632Q554.714 584.185 552.905 584.692Q551.096 585.2 549.275 585.663Q547.454 586.125 545.622 586.543Q543.79 586.96 541.948 587.332Q540.106 587.704 538.256 588.03Q536.406 588.356 534.548 588.636Q532.69 588.916 530.825 589.15Q528.961 589.384 527.092 589.571Q525.222 589.759 523.349 589.9Q521.475 590.041 519.598 590.135Q517.722 590.23 515.844 590.278Q513.965 590.326 512.086 590.327Q510.208 590.329 508.329 590.283Q506.451 590.238 504.574 590.146Q502.698 590.055 500.824 589.916Q498.95 589.778 497.08 589.593Q495.21 589.409 493.346 589.177Q491.481 588.946 489.623 588.669Q487.764 588.392 485.914 588.069Q484.063 587.745 482.22 587.376Q480.378 587.007 478.545 586.593Q476.713 586.178 474.891 585.718Q473.069 585.258 471.26 584.753Q469.45 584.248 467.653 583.698Q465.857 583.148 464.074 582.554Q462.292 581.96 460.524 581.322Q458.757 580.684 457.006 580.002Q455.256 579.32 453.522 578.595Q451.789 577.87 450.074 577.102C412.538 560.639 382.887 528.413 368.177 490.308C363.186 477.381 353.376 441.099 359.311 428.481C361.832 423.119 366.362 420.357 371.789 418.532Z"/>
		<path fill="white" transform="matrix(0.956905 0 0 0.956905 -209.684 -212.661)" d="M529.44 519.531C552.19 519.141 575.012 519.519 597.766 519.615Q593.128 524.219 588.097 528.39Q583.067 532.561 577.683 536.266C563.859 545.678 545.874 552.687 529.261 554.911C529.09 543.137 529.386 531.309 529.44 519.531Z"/>
		<path fill="white" transform="matrix(0.956905 0 0 0.956905 -209.684 -212.661)" d="M426.04 519.699L494.959 519.59L494.983 554.791C471.588 552.152 441.819 537.353 426.04 519.699Z"/>
		<path fill="white" transform="matrix(0.956905 0 0 0.956905 -209.684 -212.661)" d="M564.486 451.746Q597.357 451.822 630.226 451.556C628.868 463.751 625.117 474.685 620.486 485.951L596.25 485.929L529.53 485.868L529.446 451.822L564.486 451.746Z"/>
		<path fill="white" transform="matrix(0.956905 0 0 0.956905 -209.684 -212.661)" d="M393.541 451.739L495.026 451.576C494.934 459.79 496.262 479.08 494.82 485.784C464.243 486.221 433.623 485.907 403.04 485.938C399.088 477.587 392.857 461.639 392.763 452.314L393.541 451.739Z"/>
	</g>
</svg>
